<svg xmlns="http://www.w3.org/2000/svg" xmlns:xlink="http://www.w3.org/1999/xlink" width="500" zoomAndPan="magnify" viewBox="0 0 375 374.999991" height="500" preserveAspectRatio="xMidYMid meet" version="1.0"><defs><g/></defs><g fill="#000000" fill-opacity="1"><g transform="translate(116.020585, 318.513125)"><g><path d="M -32.703125 -181.140625 C -26.378906 -199.671875 -15.804688 -212.421875 -0.984375 -219.390625 C 13.835938 -226.367188 40.101562 -229.859375 77.8125 -229.859375 C 85.664062 -229.859375 105.503906 -229.53125 137.328125 -228.875 C 160.429688 -228.21875 180.8125 -223.203125 198.46875 -213.828125 C 216.125 -204.460938 229.910156 -191.222656 239.828125 -174.109375 C 249.742188 -156.992188 254.703125 -137.101562 254.703125 -114.4375 C 254.703125 -80.21875 243.859375 -52.585938 222.171875 -31.546875 C 200.484375 -10.515625 172.203125 0 137.328125 0 L 26.484375 0 L 26.8125 -3.265625 L 30.734375 -3.265625 C 36.179688 -3.265625 40.867188 -5.0625 44.796875 -8.65625 C 48.722656 -12.257812 51.007812 -16.675781 51.65625 -21.90625 L 51.65625 -219.0625 C 24.414062 -218.414062 5.125 -214.164062 -6.21875 -206.3125 C -12.101562 -202.175781 -16.570312 -198.195312 -19.625 -194.375 C -22.675781 -190.5625 -25.832031 -185.710938 -29.09375 -179.828125 Z M 72.90625 -219.0625 L 72.90625 -9.8125 L 137.328125 -9.8125 C 165.015625 -9.8125 187.410156 -19.398438 204.515625 -38.578125 C 221.628906 -57.765625 230.1875 -83.050781 230.1875 -114.4375 C 230.1875 -135.144531 226.316406 -153.398438 218.578125 -169.203125 C 210.835938 -185.003906 199.9375 -197.265625 185.875 -205.984375 C 171.820312 -214.703125 155.640625 -219.0625 137.328125 -219.0625 Z M 72.90625 -219.0625 "/></g></g></g><g fill="#000000" fill-opacity="1"><g transform="translate(19.873358, 254.164827)"><g><path d="M 38.90625 -86.96875 C 27.570312 -72.144531 21.90625 -56.125 21.90625 -38.90625 C 21.90625 -18.414062 30.515625 -2.503906 47.734375 8.828125 C 57.765625 15.585938 69.15625 18.96875 81.90625 18.96875 C 94.65625 18.96875 105.71875 16.457031 115.09375 11.4375 C 132.75 2.289062 142.664062 -13.070312 144.84375 -34.65625 C 145.0625 -36.1875 145.171875 -37.710938 145.171875 -39.234375 C 145.171875 -47.296875 142.9375 -56.015625 138.46875 -65.390625 C 134 -74.765625 126.753906 -83.375 116.734375 -91.21875 L 57.875 -137.65625 C 45.007812 -147.675781 38.578125 -160.644531 38.578125 -176.5625 C 38.578125 -192.476562 43.695312 -205.9375 53.9375 -216.9375 C 64.1875 -227.945312 78.03125 -233.453125 95.46875 -233.453125 C 104.1875 -233.453125 113.671875 -232.363281 123.921875 -230.1875 L 137 -230.1875 L 137.65625 -189.96875 L 134.390625 -189.96875 C 134.171875 -200.425781 130.410156 -208.648438 123.109375 -214.640625 C 115.804688 -220.640625 106.648438 -223.640625 95.640625 -223.640625 C 84.628906 -223.640625 75.414062 -219.988281 68 -212.6875 C 60.59375 -205.382812 56.890625 -196.007812 56.890625 -184.5625 C 56.890625 -173.125 61.6875 -163.59375 71.28125 -155.96875 L 131.765625 -108.234375 C 155.742188 -89.265625 167.734375 -66.375 167.734375 -39.5625 C 167.734375 -19.507812 159.773438 -2.289062 143.859375 12.09375 C 130.128906 24.519531 111.820312 30.734375 88.9375 30.734375 C 74.988281 30.734375 62.5625 28.117188 51.65625 22.890625 C 31.164062 13.296875 18.851562 -3.050781 14.71875 -26.15625 C 14.0625 -29.644531 13.734375 -34.054688 13.734375 -39.390625 C 13.734375 -44.734375 15.257812 -52.035156 18.3125 -61.296875 C 21.363281 -70.566406 27.25 -79.890625 35.96875 -89.265625 Z M 38.90625 -86.96875 "/></g></g></g><path fill="#e1e1e1" d="M -7.851562 138.054688 L 362.863281 138.054688 C 365.046875 138.054688 367.144531 138.925781 368.691406 140.46875 C 370.234375 142.015625 371.101562 144.109375 371.101562 146.296875 L 371.101562 162.777344 C 371.101562 164.960938 370.234375 167.058594 368.691406 168.601562 C 367.144531 170.148438 365.046875 171.015625 362.863281 171.015625 L -7.851562 171.015625 C -10.035156 171.015625 -12.132812 170.148438 -13.679688 168.601562 C -15.222656 167.058594 -16.089844 164.960938 -16.089844 162.777344 L -16.089844 146.296875 C -16.089844 144.109375 -15.222656 142.015625 -13.679688 140.46875 C -12.132812 138.925781 -10.035156 138.054688 -7.851562 138.054688 Z M -7.851562 138.054688 " fill-opacity="1" fill-rule="nonzero"/><g fill="#000000" fill-opacity="1"><g transform="translate(0.00643969, 160.713936)"><g><path d="M 6.0625 0.1875 C 4.34375 0.1875 3 -0.195312 2.03125 -0.96875 C 1.070312 -1.738281 0.523438 -2.867188 0.390625 -4.359375 L 2.90625 -4.71875 C 3.15625 -2.957031 4.25 -2.078125 6.1875 -2.078125 C 7.03125 -2.078125 7.679688 -2.242188 8.140625 -2.578125 C 8.609375 -2.921875 8.84375 -3.394531 8.84375 -4 C 8.84375 -4.550781 8.609375 -4.96875 8.140625 -5.25 C 7.679688 -5.53125 6.9375 -5.796875 5.90625 -6.046875 C 4.9375 -6.273438 4.109375 -6.550781 3.421875 -6.875 C 2.734375 -7.195312 2.207031 -7.632812 1.84375 -8.1875 C 1.476562 -8.738281 1.296875 -9.46875 1.296875 -10.375 C 1.296875 -11.238281 1.519531 -12.003906 1.96875 -12.671875 C 2.414062 -13.347656 3.03125 -13.878906 3.8125 -14.265625 C 4.59375 -14.648438 5.5 -14.84375 6.53125 -14.84375 C 7.894531 -14.84375 9.007812 -14.484375 9.875 -13.765625 C 10.738281 -13.054688 11.25 -12.078125 11.40625 -10.828125 L 9.046875 -10.4375 C 8.765625 -11.863281 7.890625 -12.578125 6.421875 -12.578125 C 5.703125 -12.578125 5.117188 -12.390625 4.671875 -12.015625 C 4.222656 -11.648438 4 -11.164062 4 -10.5625 C 4 -9.957031 4.21875 -9.492188 4.65625 -9.171875 C 5.101562 -8.847656 5.851562 -8.5625 6.90625 -8.3125 C 7.851562 -8.09375 8.671875 -7.832031 9.359375 -7.53125 C 10.046875 -7.238281 10.578125 -6.832031 10.953125 -6.3125 C 11.335938 -5.789062 11.53125 -5.078125 11.53125 -4.171875 C 11.53125 -3.316406 11.296875 -2.5625 10.828125 -1.90625 C 10.367188 -1.25 9.726562 -0.734375 8.90625 -0.359375 C 8.09375 0.00390625 7.144531 0.1875 6.0625 0.1875 Z M 6.0625 0.1875 "/></g></g></g><g fill="#000000" fill-opacity="1"><g transform="translate(27.778429, 160.713936)"><g><path d="M 4.125 0 L 1.5 0 L 1.5 -14.640625 L 6.65625 -14.640625 C 8.5625 -14.640625 10.015625 -14.253906 11.015625 -13.484375 C 12.015625 -12.710938 12.515625 -11.597656 12.515625 -10.140625 C 12.515625 -8.671875 11.972656 -7.519531 10.890625 -6.6875 C 9.804688 -5.851562 8.222656 -5.4375 6.140625 -5.4375 L 4.125 -5.4375 Z M 6.5625 -12.453125 L 4.125 -12.453125 L 4.125 -7.65625 L 6.296875 -7.65625 C 7.523438 -7.65625 8.421875 -7.851562 8.984375 -8.25 C 9.554688 -8.644531 9.84375 -9.265625 9.84375 -10.109375 C 9.84375 -10.941406 9.578125 -11.539062 9.046875 -11.90625 C 8.515625 -12.269531 7.6875 -12.453125 6.5625 -12.453125 Z M 6.5625 -12.453125 "/></g></g></g><g fill="#000000" fill-opacity="1"><g transform="translate(56.33351, 160.713936)"><g><path d="M 10.9375 -12.328125 L 4.125 -12.328125 L 4.125 -8.5625 L 10.59375 -8.5625 L 10.59375 -6.25 L 4.125 -6.25 L 4.125 -2.3125 L 11.171875 -2.3125 L 11 0 L 1.5 0 L 1.5 -14.640625 L 10.9375 -14.640625 Z M 10.9375 -12.328125 "/></g></g></g><g fill="#000000" fill-opacity="1"><g transform="translate(83.67275, 160.713936)"><g><path d="M 11.140625 -14.640625 L 13.71875 -14.640625 L 13.71875 0 L 11.359375 0 L 4.078125 -10.203125 L 4.078125 0 L 1.5 0 L 1.5 -14.640625 L 3.859375 -14.640625 L 11.140625 -4.4375 Z M 11.140625 -14.640625 "/></g></g></g><g fill="#000000" fill-opacity="1"><g transform="translate(114.5771, 160.713936)"><g><path d="M 1.5 0 L 1.5 -14.640625 L 5.859375 -14.640625 C 8.703125 -14.640625 10.851562 -14.023438 12.3125 -12.796875 C 13.769531 -11.578125 14.5 -9.773438 14.5 -7.390625 C 14.5 -5.898438 14.175781 -4.597656 13.53125 -3.484375 C 12.882812 -2.378906 11.96875 -1.519531 10.78125 -0.90625 C 9.601562 -0.300781 8.21875 0 6.625 0 Z M 4.1875 -2.375 L 6.515625 -2.375 C 8.234375 -2.375 9.539062 -2.789062 10.4375 -3.625 C 11.332031 -4.457031 11.78125 -5.675781 11.78125 -7.28125 C 11.78125 -8.957031 11.320312 -10.207031 10.40625 -11.03125 C 9.488281 -11.851562 8.085938 -12.265625 6.203125 -12.265625 L 4.1875 -12.265625 Z M 4.1875 -2.375 "/></g></g></g><g fill="#000000" fill-opacity="1"><g transform="translate(145.687526, 160.713936)"><g/></g></g><g fill="#000000" fill-opacity="1"><g transform="translate(166.391108, 160.713936)"><g><path d="M 1.5 0 L 1.5 -14.640625 L 5.859375 -14.640625 C 8.703125 -14.640625 10.851562 -14.023438 12.3125 -12.796875 C 13.769531 -11.578125 14.5 -9.773438 14.5 -7.390625 C 14.5 -5.898438 14.175781 -4.597656 13.53125 -3.484375 C 12.882812 -2.378906 11.96875 -1.519531 10.78125 -0.90625 C 9.601562 -0.300781 8.21875 0 6.625 0 Z M 4.1875 -2.375 L 6.515625 -2.375 C 8.234375 -2.375 9.539062 -2.789062 10.4375 -3.625 C 11.332031 -4.457031 11.78125 -5.675781 11.78125 -7.28125 C 11.78125 -8.957031 11.320312 -10.207031 10.40625 -11.03125 C 9.488281 -11.851562 8.085938 -12.265625 6.203125 -12.265625 L 4.1875 -12.265625 Z M 4.1875 -2.375 "/></g></g></g><g fill="#000000" fill-opacity="1"><g transform="translate(197.501534, 160.713936)"><g><path d="M 8.015625 0.1875 C 6.535156 0.195312 5.265625 -0.078125 4.203125 -0.640625 C 3.148438 -1.210938 2.335938 -2.039062 1.765625 -3.125 C 1.203125 -4.21875 0.921875 -5.523438 0.921875 -7.046875 C 0.921875 -8.578125 1.222656 -9.929688 1.828125 -11.109375 C 2.441406 -12.285156 3.300781 -13.203125 4.40625 -13.859375 C 5.507812 -14.515625 6.816406 -14.84375 8.328125 -14.84375 C 9.679688 -14.84375 10.863281 -14.539062 11.875 -13.9375 C 12.894531 -13.332031 13.6875 -12.488281 14.25 -11.40625 C 14.8125 -10.332031 15.09375 -9.066406 15.09375 -7.609375 C 15.09375 -6.023438 14.785156 -4.648438 14.171875 -3.484375 C 13.566406 -2.328125 12.726562 -1.425781 11.65625 -0.78125 C 10.59375 -0.132812 9.378906 0.1875 8.015625 0.1875 Z M 7.9375 -2.234375 C 8.800781 -2.234375 9.566406 -2.441406 10.234375 -2.859375 C 10.898438 -3.285156 11.421875 -3.898438 11.796875 -4.703125 C 12.179688 -5.503906 12.375 -6.472656 12.375 -7.609375 C 12.375 -9.078125 12 -10.25 11.25 -11.125 C 10.507812 -12.007812 9.515625 -12.453125 8.265625 -12.453125 C 7.378906 -12.453125 6.585938 -12.222656 5.890625 -11.765625 C 5.191406 -11.316406 4.644531 -10.691406 4.25 -9.890625 C 3.851562 -9.097656 3.65625 -8.164062 3.65625 -7.09375 C 3.65625 -5.539062 4.035156 -4.34375 4.796875 -3.5 C 5.554688 -2.65625 6.601562 -2.234375 7.9375 -2.234375 Z M 7.9375 -2.234375 "/></g></g></g><g fill="#000000" fill-opacity="1"><g transform="translate(229.209593, 160.713936)"><g><path d="M 1.5 0 L 1.5 -14.640625 L 4.1875 -14.640625 L 4.1875 -2.34375 L 10.703125 -2.34375 L 10.515625 0 Z M 1.5 0 "/></g></g></g><g fill="#000000" fill-opacity="1"><g transform="translate(255.497821, 160.713936)"><g><path d="M 1.5 0 L 1.5 -14.640625 L 4.1875 -14.640625 L 4.1875 0 Z M 1.5 0 "/></g></g></g><g fill="#000000" fill-opacity="1"><g transform="translate(276.881455, 160.713936)"><g><path d="M 11.140625 -14.640625 L 13.71875 -14.640625 L 13.71875 0 L 11.359375 0 L 4.078125 -10.203125 L 4.078125 0 L 1.5 0 L 1.5 -14.640625 L 3.859375 -14.640625 L 11.140625 -4.4375 Z M 11.140625 -14.640625 "/></g></g></g><g fill="#000000" fill-opacity="1"><g transform="translate(307.785793, 160.713936)"><g><path d="M 8.640625 -7.625 L 14.453125 -7.625 L 14.453125 0 L 12.328125 0 L 12.109375 -1.5625 C 11.628906 -0.9375 11.015625 -0.488281 10.265625 -0.21875 C 9.523438 0.0507812 8.707031 0.1875 7.8125 0.1875 C 6.414062 0.1875 5.203125 -0.0976562 4.171875 -0.671875 C 3.140625 -1.253906 2.335938 -2.082031 1.765625 -3.15625 C 1.203125 -4.238281 0.921875 -5.53125 0.921875 -7.03125 C 0.921875 -8.582031 1.238281 -9.941406 1.875 -11.109375 C 2.519531 -12.285156 3.429688 -13.203125 4.609375 -13.859375 C 5.785156 -14.515625 7.164062 -14.84375 8.75 -14.84375 C 10.039062 -14.84375 11.144531 -14.601562 12.0625 -14.125 C 12.988281 -13.644531 13.753906 -12.925781 14.359375 -11.96875 L 12.296875 -10.453125 C 11.921875 -11.117188 11.414062 -11.609375 10.78125 -11.921875 C 10.15625 -12.234375 9.460938 -12.390625 8.703125 -12.390625 C 7.679688 -12.390625 6.796875 -12.164062 6.046875 -11.71875 C 5.296875 -11.28125 4.71875 -10.660156 4.3125 -9.859375 C 3.914062 -9.054688 3.71875 -8.128906 3.71875 -7.078125 C 3.71875 -5.535156 4.101562 -4.34375 4.875 -3.5 C 5.65625 -2.65625 6.722656 -2.234375 8.078125 -2.234375 C 8.722656 -2.234375 9.332031 -2.347656 9.90625 -2.578125 C 10.488281 -2.804688 10.960938 -3.148438 11.328125 -3.609375 C 11.691406 -4.078125 11.875 -4.648438 11.875 -5.328125 L 11.875 -5.4375 L 8.640625 -5.4375 Z M 8.640625 -7.625 "/></g></g></g><g fill="#000000" fill-opacity="1"><g transform="translate(338.978661, 160.713936)"><g><path d="M 8.015625 0.1875 C 6.535156 0.195312 5.265625 -0.078125 4.203125 -0.640625 C 3.148438 -1.210938 2.335938 -2.039062 1.765625 -3.125 C 1.203125 -4.21875 0.921875 -5.523438 0.921875 -7.046875 C 0.921875 -8.578125 1.222656 -9.929688 1.828125 -11.109375 C 2.441406 -12.285156 3.300781 -13.203125 4.40625 -13.859375 C 5.507812 -14.515625 6.816406 -14.84375 8.328125 -14.84375 C 9.679688 -14.84375 10.863281 -14.539062 11.875 -13.9375 C 12.894531 -13.332031 13.6875 -12.488281 14.25 -11.40625 C 14.8125 -10.332031 15.09375 -9.066406 15.09375 -7.609375 C 15.09375 -6.023438 14.785156 -4.648438 14.171875 -3.484375 C 13.566406 -2.328125 12.726562 -1.425781 11.65625 -0.78125 C 10.59375 -0.132812 9.378906 0.1875 8.015625 0.1875 Z M 7.9375 -2.234375 C 8.800781 -2.234375 9.566406 -2.441406 10.234375 -2.859375 C 10.898438 -3.285156 11.421875 -3.898438 11.796875 -4.703125 C 12.179688 -5.503906 12.375 -6.472656 12.375 -7.609375 C 12.375 -9.078125 12 -10.25 11.25 -11.125 C 10.507812 -12.007812 9.515625 -12.453125 8.265625 -12.453125 C 7.378906 -12.453125 6.585938 -12.222656 5.890625 -11.765625 C 5.191406 -11.316406 4.644531 -10.691406 4.25 -9.890625 C 3.851562 -9.097656 3.65625 -8.164062 3.65625 -7.09375 C 3.65625 -5.539062 4.035156 -4.34375 4.796875 -3.5 C 5.554688 -2.65625 6.601562 -2.234375 7.9375 -2.234375 Z M 7.9375 -2.234375 "/></g></g></g></svg>